<svg xmlns="http://www.w3.org/2000/svg" width="261" height="56"><style>@media (prefers-color-scheme:dark){.a{fill:#fff}}</style><defs><linearGradient id="a" x1="87.696%" x2="12.862%" y1="0%" y2="99.259%"><stop offset="0%" stop-color="#B22746"/><stop offset="100%" stop-color="#8E244D"/></linearGradient></defs><g fill="none" fill-rule="evenodd"><path fill="url(#a)" d="M32.803 0a2.997 2.997 0 0 1 2.996 2.997v10.568a2.997 2.997 0 0 1-2.996 2.997h-8.87a1.62 1.62 0 0 0-1.619 1.62c0 .968.616 1.83 1.532 2.145L46.6 27.854a3 3 0 0 1 2.023 2.834V46.01a2.997 2.997 0 0 1-2.996 2.997H32.98c-.898 0-1.631.705-1.675 1.592l-.002.084v3.318A2 2 0 0 1 29.307 56h-9.49a2 2 0 0 1-1.998-1.998V47.01c0-1.103.895-1.998 1.998-1.998h4.816c.926 0 1.677-.75 1.677-1.676v-1.01c0-.708-.445-1.34-1.112-1.578l-23.211-8.01A3 3 0 0 1 0 29.917V14.564a2.997 2.997 0 0 1 2.997-2.997h9.65c.926 0 1.676-.75 1.676-1.676V2.997A2.997 2.997 0 0 1 17.32 0z"/><path class="a" fill="#000" fill-rule="nonzero" d="M77.871 41.752c5.677 0 9.318-2.785 9.318-7.176 0-7.872-11.514-10.39-11.514-13.87 0-1.125.964-1.767 2.625-1.767 3.534 0 7.979 1.446 7.979 1.446l.321-4.98s-3.748-1.5-7.336-1.5c-5.356 0-8.944 2.624-8.944 6.587 0 7.336 11.514 9.746 11.514 13.495 0 1.714-1.607 2.731-4.284 2.731-3.535 0-7.765-1.446-7.765-1.446l-.322 4.98.01.004c.249.075 5.009 1.496 8.398 1.496m17.036 11.193V41.27c2.035.375 4.016.536 5.944.536 9.533 0 15.905-5.891 15.905-14.78 0-8.087-4.605-13.175-11.835-13.175-3.963 0-7.765 2.035-9.746 5.195h-.268v-4.66h-5.141v38.559zm6.533-16.12c-2.999 0-5.034-.696-6.533-1.231v-7.498c.482-5.355 4.123-9.265 8.89-9.265 4.659 0 7.604 3.107 7.604 8.14 0 6.052-3.91 9.854-9.96 9.854m23.034 4.338V31.15c0-7.551 2.57-11.782 7.122-11.782 1.66 0 3.214.536 4.445 1.5l2.41-5.142c-1.5-1.07-3.32-1.606-5.57-1.606-3.802 0-7.175 2.303-8.514 5.784v-5.516h-5.034v26.776zm26.725.59c4.016 0 7.604-1.018 10.925-3.16l-.429-5.356-.137.09-.274.183c-2.38 1.575-4.806 3.155-8.907 3.155-4.873 0-8.568-2.41-9.854-5.998h20.297v-2.464c0-8.997-4.766-14.245-12.906-14.245-7.39 0-13.228 6.159-13.228 13.87 0 8.033 6.105 13.924 14.513 13.924m6.48-16.12h-15.37c.964-3.749 4.284-6.587 8.14-6.587 3.91 0 7.23 3.052 7.23 6.587m13.292 15.53V31.79c0-7.015 4.606-12.852 10.176-12.852 4.498 0 6.8 2.784 6.8 8.086v14.138h5.249v-15.53c0-7.123-4.338-11.782-10.978-11.782-4.874 0-8.89 2.463-10.979 6.855h-.268v-6.32h-5.14v26.777zm37.07.536c3.964 0 7.766-2.035 9.747-5.195h.268v4.66h5.141V2.603h-5.14V14.28a32.7 32.7 0 0 0-5.945-.535c-9.533 0-15.906 5.89-15.906 14.78 0 8.087 4.606 13.175 11.836 13.175m1.125-4.98c-4.659 0-7.604-3.107-7.604-8.14 0-6.052 3.91-9.855 9.96-9.855 3 0 5.035.697 6.534 1.232v7.498c-.482 5.355-4.124 9.264-8.89 9.264m29.996 5.087c3.266 0 5.89-1.018 8.033-3.213v2.57h5.14v-26.83h-5.14v2.731c-2.089-2.088-4.767-3.16-8.033-3.16-7.765 0-13.389 5.838-13.389 13.924 0 8.087 5.624 13.978 13.389 13.978m.107-5.141c-4.606 0-8.14-3.963-8.14-8.837s3.534-8.782 8.14-8.782c4.766 0 7.872 3.427 7.872 8.782 0 5.249-3.213 8.837-7.872 8.837m21.218 4.498V2.605h-5.14v38.558z"/></g></svg>